<?xml version="1.0" encoding="utf-8"?>
<!-- Generator: Adobe Illustrator 24.1.1, SVG Export Plug-In . SVG Version: 6.00 Build 0)  -->
<svg version="1.1" id="Layer_1" xmlns="http://www.w3.org/2000/svg" xmlns:xlink="http://www.w3.org/1999/xlink" x="0px" y="0px"
	 viewBox="0 0 512 512" style="enable-background:new 0 0 512 512;" xml:space="preserve">
<g>
	<path d="M25.6,409.6h460.8c14.1,0,25.6,11.5,25.6,25.6c0,14.1-11.5,25.6-25.6,25.6H25.6C11.5,460.8,0,449.3,0,435.2
		C0,421.1,11.5,409.6,25.6,409.6z M51.2,51.2h409.6c28.3,0,51.2,22.9,51.2,51.2v256c0,14.1-11.5,25.6-25.6,25.6H25.6
		C11.5,384,0,372.5,0,358.4v-256C0,74.1,22.9,51.2,51.2,51.2z"/>
</g>
</svg>
