<?xml version="1.0" standalone="no"?>
<!DOCTYPE svg PUBLIC "-//W3C//DTD SVG 20010904//EN"
 "http://www.w3.org/TR/2001/REC-SVG-20010904/DTD/svg10.dtd">
<svg version="1.0" xmlns="http://www.w3.org/2000/svg"
 width="1280.000000pt" height="780.000000pt" viewBox="0 0 1280.000000 780.000000"
 preserveAspectRatio="xMidYMid meet">
<g transform="translate(0.000000,780.000000) scale(0.100000,-0.100000)"
fill="#000000" stroke="none">
<path d="M1389 7777 c-110 -37 -165 -84 -220 -187 l-24 -45 -3 -3388 c-2
-3161 -1 -3391 15 -3424 9 -20 32 -45 51 -56 25 -15 30 -22 20 -28 -7 -5 -277
-9 -599 -9 -570 0 -587 -1 -609 -20 -19 -17 -22 -25 -15 -57 4 -21 11 -58 15
-83 5 -25 9 -99 9 -166 1 -109 3 -125 27 -172 29 -58 65 -90 137 -121 l49 -21
6158 0 6158 0 49 21 c72 31 108 63 137 121 24 47 26 63 27 172 0 67 4 141 9
166 4 25 11 61 15 80 5 28 2 40 -15 58 l-21 22 -587 0 c-323 0 -593 4 -600 9
-10 6 -5 13 20 28 19 11 42 36 51 56 16 33 17 263 15 3424 l-3 3388 -24 45
c-56 105 -119 157 -232 190 -66 20 -107 20 -5005 19 l-4939 0 -66 -22z m3276
-81 c34 -34 41 -71 21 -113 -18 -39 -69 -65 -107 -56 -44 11 -79 53 -79 96 0
84 107 131 165 73z m6653 -244 c10 -7 12 -659 10 -3228 l-3 -3219 -4925 0
-4925 0 -3 3219 c-2 2569 0 3221 10 3228 17 10 9819 10 9836 0z m-3313 -6802
c3 -5 -3 -30 -14 -54 -36 -83 106 -76 -1591 -76 -1697 0 -1555 -7 -1591 76
-11 24 -17 49 -14 54 8 14 3202 14 3210 0z m3373 -206 c59 -39 79 -130 42
-191 -28 -47 -72 -66 -138 -61 -48 4 -60 10 -88 41 -45 48 -52 94 -25 151 38
78 137 107 209 60z m430 0 c84 -54 80 -194 -7 -239 -116 -60 -256 52 -208 167
36 87 139 121 215 72z m393 16 c112 -31 135 -190 36 -250 -57 -35 -145 -22
-190 28 -63 69 -24 194 69 222 39 11 44 11 85 0z m-10871 -100 c11 -11 20 -26
20 -34 0 -19 -26 -45 -53 -51 -12 -3 -190 -5 -394 -3 -365 3 -373 3 -394 24
-25 26 -19 61 14 74 12 5 194 9 405 9 369 1 383 0 402 -19z"/>
</g>
</svg>
